# xmcd
#
# Track frame offsets: 
#        150
#        27877
#        53245
#        79335
#        91857
#        116757
#        141212
#        167757
#        191195
#
# Disc length: 2795 seconds
#
# Revision: 3
# Processed by: cddbd v1.5PL3 Copyright (c) Steve Scherf et al.
# Submitted via: ExactAudioCopy v0.95a5
#
DISCID=780ae909
DTITLE=Danilo Perez - Cenral Avnue
DYEAR=1998
DGENRE=Jazz
TTITLE0=Blues For The Saints
TTITLE1=Impromptu (Conversations)
TTITLE2=Lush Life - Rhythm In Blue Suite
TTITLE3=Playground
TTITLE4=Sideways
TTITLE5=Love In 5
TTITLE6=Impressions
TTITLE7=Cosa Linda
TTITLE8=Panama Blues
EXTD=\n YEAR: 1998
EXTT0=
EXTT1=
EXTT2=
EXTT3=
EXTT4=
EXTT5=
EXTT6=
EXTT7=
EXTT8=
PLAYORDER=
